<svg xmlns="http://www.w3.org/2000/svg" version="1.1" xmlns:xlink="http://www.w3.org/1999/xlink" xmlns:svgjs="http://svgjs.com/svgjs" width="1440" height="560" preserveAspectRatio="none" viewBox="0 0 1440 560"><g mask="url(&quot;#SvgjsMask1000&quot;)" fill="none"><rect width="1440" height="560" x="0" y="0" fill="#0e2a47"></rect><g mask="url(&quot;#SvgjsMask1001&quot;)"><path d="M262.5 312.5L287.5 287.5L312.5 287.5M162.5 312.5L187.5 287.5L212.5 287.5L237.5 287.5L262.5 287.5M112.5 287.5L137.5 287.5L162.5 287.5M-12.5 287.5L12.5 287.5L37.5 287.5L62.5 287.5L87.5 287.5L112.5 287.5L137.5 312.5L162.5 312.5L187.5 312.5L212.5 312.5L237.5 312.5L262.5 312.5L287.5 312.5L312.5 312.5" stroke="#3a7cc3" stroke-width="4.17"></path><path d="M306.25 312.5 a6.25 6.25 0 1 0 12.5 0 a6.25 6.25 0 1 0 -12.5 0zM306.25 287.5 a6.25 6.25 0 1 0 12.5 0 a6.25 6.25 0 1 0 -12.5 0zM256.25 287.5 a6.25 6.25 0 1 0 12.5 0 a6.25 6.25 0 1 0 -12.5 0zM156.25 287.5 a6.25 6.25 0 1 0 12.5 0 a6.25 6.25 0 1 0 -12.5 0z" fill="#3a7cc3"></path><path d="M237.5 262.5L262.5 237.5M437.5 237.5L462.5 212.5L487.5 212.5L512.5 212.5M412.5 237.5L437.5 212.5L462.5 187.5L487.5 187.5L512.5 187.5M212.5 262.5L237.5 237.5M362.5 237.5L387.5 212.5L412.5 212.5L437.5 187.5M-12.5 262.5L12.5 262.5L37.5 262.5L62.5 262.5L87.5 262.5L112.5 262.5L137.5 262.5L162.5 262.5L187.5 262.5L212.5 262.5L237.5 262.5L262.5 262.5L287.5 262.5L312.5 237.5L337.5 237.5L362.5 237.5L387.5 237.5L412.5 237.5L437.5 237.5L462.5 237.5" stroke="#dd1133" stroke-width="4.17"></path><path d="M456.25 237.5 a6.25 6.25 0 1 0 12.5 0 a6.25 6.25 0 1 0 -12.5 0zM256.25 237.5 a6.25 6.25 0 1 0 12.5 0 a6.25 6.25 0 1 0 -12.5 0zM506.25 212.5 a6.25 6.25 0 1 0 12.5 0 a6.25 6.25 0 1 0 -12.5 0zM506.25 187.5 a6.25 6.25 0 1 0 12.5 0 a6.25 6.25 0 1 0 -12.5 0zM231.25 237.5 a6.25 6.25 0 1 0 12.5 0 a6.25 6.25 0 1 0 -12.5 0zM431.25 187.5 a6.25 6.25 0 1 0 12.5 0 a6.25 6.25 0 1 0 -12.5 0z" fill="#dd1133"></path><path d="M-12.5 312.5L12.5 312.5L37.5 312.5L62.5 312.5L87.5 312.5L112.5 312.5L137.5 337.5L162.5 337.5L187.5 337.5L212.5 337.5L237.5 337.5" stroke="#3a7cc3" stroke-width="4.17"></path><path d="M231.25 337.5 a6.25 6.25 0 1 0 12.5 0 a6.25 6.25 0 1 0 -12.5 0z" fill="#3a7cc3"></path><path d="M187.5 237.5L212.5 237.5M212.5 212.5L237.5 187.5L262.5 187.5L287.5 187.5M112.5 237.5L137.5 212.5M-12.5 237.5L12.5 237.5L37.5 237.5L62.5 237.5L87.5 237.5L112.5 237.5L137.5 237.5L162.5 237.5L187.5 237.5L212.5 212.5L237.5 212.5L262.5 212.5L287.5 212.5" stroke="#3a7cc3" stroke-width="4.17"></path><path d="M281.25 212.5 a6.25 6.25 0 1 0 12.5 0 a6.25 6.25 0 1 0 -12.5 0zM206.25 237.5 a6.25 6.25 0 1 0 12.5 0 a6.25 6.25 0 1 0 -12.5 0zM281.25 187.5 a6.25 6.25 0 1 0 12.5 0 a6.25 6.25 0 1 0 -12.5 0zM131.25 212.5 a6.25 6.25 0 1 0 12.5 0 a6.25 6.25 0 1 0 -12.5 0z" fill="#3a7cc3"></path><path d="M-12.5 337.5L12.5 337.5L37.5 337.5L62.5 337.5" stroke="#dd1133" stroke-width="4.17"></path><path d="M56.25 337.5 a6.25 6.25 0 1 0 12.5 0 a6.25 6.25 0 1 0 -12.5 0z" fill="#dd1133"></path><path d="M-12.5 212.5L12.5 212.5L37.5 212.5L62.5 212.5" stroke="#3a7cc3" stroke-width="4.17"></path><path d="M56.25 212.5 a6.25 6.25 0 1 0 12.5 0 a6.25 6.25 0 1 0 -12.5 0z" fill="#3a7cc3"></path><path d="M487.5 337.5L512.5 362.5M412.5 312.5L437.5 337.5L462.5 337.5L487.5 362.5L512.5 387.5M512.5 337.5L537.5 312.5M287.5 362.5L312.5 362.5L337.5 362.5L362.5 362.5M337.5 337.5L362.5 312.5L387.5 287.5L412.5 287.5L437.5 287.5L462.5 287.5L487.5 287.5L512.5 287.5M-12.5 362.5L12.5 362.5L37.5 362.5L62.5 362.5L87.5 362.5L112.5 362.5L137.5 362.5L162.5 362.5L187.5 362.5L212.5 362.5L237.5 362.5L262.5 362.5L287.5 362.5L312.5 337.5L337.5 337.5L362.5 337.5L387.5 312.5L412.5 312.5L437.5 312.5L462.5 312.5L487.5 337.5L512.5 337.5L537.5 337.5" stroke="#3a7cc3" stroke-width="4.17"></path><path d="M531.25 337.5 a6.25 6.25 0 1 0 12.5 0 a6.25 6.25 0 1 0 -12.5 0zM506.25 362.5 a6.25 6.25 0 1 0 12.5 0 a6.25 6.25 0 1 0 -12.5 0zM506.25 387.5 a6.25 6.25 0 1 0 12.5 0 a6.25 6.25 0 1 0 -12.5 0zM531.25 312.5 a6.25 6.25 0 1 0 12.5 0 a6.25 6.25 0 1 0 -12.5 0zM356.25 362.5 a6.25 6.25 0 1 0 12.5 0 a6.25 6.25 0 1 0 -12.5 0zM506.25 287.5 a6.25 6.25 0 1 0 12.5 0 a6.25 6.25 0 1 0 -12.5 0z" fill="#3a7cc3"></path><path d="M-12.5 187.5L12.5 187.5L37.5 187.5L62.5 187.5L87.5 187.5" stroke="#dd1133" stroke-width="4.17"></path><path d="M81.25 187.5 a6.25 6.25 0 1 0 12.5 0 a6.25 6.25 0 1 0 -12.5 0z" fill="#dd1133"></path><path d="M212.5 387.5L237.5 412.5L262.5 412.5M12.5 387.5L37.5 412.5L62.5 412.5M312.5 387.5L337.5 412.5L362.5 412.5M112.5 387.5L137.5 412.5L162.5 412.5L187.5 412.5L212.5 412.5M-12.5 387.5L12.5 387.5L37.5 387.5L62.5 387.5L87.5 387.5L112.5 387.5L137.5 387.5L162.5 387.5L187.5 387.5L212.5 387.5L237.5 387.5L262.5 387.5L287.5 387.5L312.5 387.5L337.5 387.5L362.5 387.5" stroke="#dd1133" stroke-width="4.17"></path><path d="M356.25 387.5 a6.25 6.25 0 1 0 12.5 0 a6.25 6.25 0 1 0 -12.5 0zM256.25 412.5 a6.25 6.25 0 1 0 12.5 0 a6.25 6.25 0 1 0 -12.5 0zM56.25 412.5 a6.25 6.25 0 1 0 12.5 0 a6.25 6.25 0 1 0 -12.5 0zM356.25 412.5 a6.25 6.25 0 1 0 12.5 0 a6.25 6.25 0 1 0 -12.5 0zM206.25 412.5 a6.25 6.25 0 1 0 12.5 0 a6.25 6.25 0 1 0 -12.5 0z" fill="#dd1133"></path><path d="M112.5 187.5L137.5 162.5L162.5 162.5L187.5 162.5M62.5 162.5L87.5 137.5L112.5 137.5M37.5 162.5L62.5 137.5M-12.5 162.5L12.5 162.5L37.5 162.5L62.5 162.5L87.5 162.5L112.5 187.5L137.5 187.5" stroke="#3a7cc3" stroke-width="4.17"></path><path d="M131.25 187.5 a6.25 6.25 0 1 0 12.5 0 a6.25 6.25 0 1 0 -12.5 0zM181.25 162.5 a6.25 6.25 0 1 0 12.5 0 a6.25 6.25 0 1 0 -12.5 0zM106.25 137.5 a6.25 6.25 0 1 0 12.5 0 a6.25 6.25 0 1 0 -12.5 0zM56.25 137.5 a6.25 6.25 0 1 0 12.5 0 a6.25 6.25 0 1 0 -12.5 0z" fill="#3a7cc3"></path></g></g><defs><mask id="SvgjsMask1000"><rect width="1440" height="560" fill="#ffffff"></rect></mask><mask id="SvgjsMask1001"><rect width="1440" height="560" fill="white"></rect><path d="M309.37 312.5 a3.13 3.13 0 1 0 6.26 0 a3.13 3.13 0 1 0 -6.26 0zM309.37 287.5 a3.13 3.13 0 1 0 6.26 0 a3.13 3.13 0 1 0 -6.26 0zM259.37 287.5 a3.13 3.13 0 1 0 6.26 0 a3.13 3.13 0 1 0 -6.26 0zM159.37 287.5 a3.13 3.13 0 1 0 6.26 0 a3.13 3.13 0 1 0 -6.26 0z" fill="black"></path><path d="M459.37 237.5 a3.13 3.13 0 1 0 6.26 0 a3.13 3.13 0 1 0 -6.26 0zM259.37 237.5 a3.13 3.13 0 1 0 6.26 0 a3.13 3.13 0 1 0 -6.26 0zM509.37 212.5 a3.13 3.13 0 1 0 6.26 0 a3.13 3.13 0 1 0 -6.26 0zM509.37 187.5 a3.13 3.13 0 1 0 6.26 0 a3.13 3.13 0 1 0 -6.26 0zM234.37 237.5 a3.13 3.13 0 1 0 6.26 0 a3.13 3.13 0 1 0 -6.26 0zM434.37 187.5 a3.13 3.13 0 1 0 6.26 0 a3.13 3.13 0 1 0 -6.26 0z" fill="black"></path><path d="M234.37 337.5 a3.13 3.13 0 1 0 6.26 0 a3.13 3.13 0 1 0 -6.26 0z" fill="black"></path><path d="M284.37 212.5 a3.13 3.13 0 1 0 6.26 0 a3.13 3.13 0 1 0 -6.26 0zM209.37 237.5 a3.13 3.13 0 1 0 6.26 0 a3.13 3.13 0 1 0 -6.26 0zM284.37 187.5 a3.13 3.13 0 1 0 6.26 0 a3.13 3.13 0 1 0 -6.26 0zM134.37 212.5 a3.13 3.13 0 1 0 6.26 0 a3.13 3.13 0 1 0 -6.26 0z" fill="black"></path><path d="M59.37 337.5 a3.13 3.13 0 1 0 6.26 0 a3.13 3.13 0 1 0 -6.26 0z" fill="black"></path><path d="M59.37 212.5 a3.13 3.13 0 1 0 6.26 0 a3.13 3.13 0 1 0 -6.26 0z" fill="black"></path><path d="M534.37 337.5 a3.13 3.13 0 1 0 6.26 0 a3.13 3.13 0 1 0 -6.26 0zM509.37 362.5 a3.13 3.13 0 1 0 6.26 0 a3.13 3.13 0 1 0 -6.26 0zM509.37 387.5 a3.13 3.13 0 1 0 6.26 0 a3.13 3.13 0 1 0 -6.26 0zM534.37 312.5 a3.13 3.13 0 1 0 6.26 0 a3.13 3.13 0 1 0 -6.26 0zM359.37 362.5 a3.13 3.13 0 1 0 6.26 0 a3.13 3.13 0 1 0 -6.26 0zM509.37 287.5 a3.13 3.13 0 1 0 6.26 0 a3.13 3.13 0 1 0 -6.26 0z" fill="black"></path><path d="M84.37 187.5 a3.13 3.13 0 1 0 6.26 0 a3.13 3.13 0 1 0 -6.26 0z" fill="black"></path><path d="M359.37 387.5 a3.13 3.13 0 1 0 6.26 0 a3.13 3.13 0 1 0 -6.26 0zM259.37 412.5 a3.13 3.13 0 1 0 6.26 0 a3.13 3.13 0 1 0 -6.26 0zM59.37 412.5 a3.13 3.13 0 1 0 6.26 0 a3.13 3.13 0 1 0 -6.26 0zM359.37 412.5 a3.13 3.13 0 1 0 6.26 0 a3.13 3.13 0 1 0 -6.26 0zM209.37 412.5 a3.13 3.13 0 1 0 6.26 0 a3.13 3.13 0 1 0 -6.26 0z" fill="black"></path><path d="M134.37 187.5 a3.13 3.13 0 1 0 6.26 0 a3.13 3.13 0 1 0 -6.26 0zM184.37 162.5 a3.13 3.13 0 1 0 6.26 0 a3.13 3.13 0 1 0 -6.26 0zM109.37 137.5 a3.13 3.13 0 1 0 6.26 0 a3.13 3.13 0 1 0 -6.26 0zM59.37 137.5 a3.13 3.13 0 1 0 6.26 0 a3.13 3.13 0 1 0 -6.26 0z" fill="black"></path></mask></defs></svg>