<svg xmlns="http://www.w3.org/2000/svg" version="1.1" xmlns:xlink="http://www.w3.org/1999/xlink" xmlns:svgjs="http://svgjs.com/svgjs" width="1440" height="560" preserveAspectRatio="none" viewBox="0 0 1440 560"><g mask="url(&quot;#SvgjsMask1002&quot;)" fill="none"><rect width="1440" height="560" x="0" y="0" fill="#0e2a47"></rect><path d="M-107.02 353.11L-107.02 353.11" stroke="rgba(58, 19, 101, 1)" stroke-width="1.5"></path><path d="M-107.02 353.11L-38.39 516.96" stroke="rgba(58, 19, 101, 1)" stroke-width="1.5"></path><path d="M-107.02 353.11L74.54 359.82" stroke="rgba(58, 19, 101, 1)" stroke-width="1.5"></path><path d="M-107.02 353.11L46.18 555.28" stroke="rgba(58, 19, 101, 1)" stroke-width="1.5"></path><path d="M-107.02 353.11L193.22 352.81" stroke="rgba(58, 19, 101, 1)" stroke-width="1.5"></path><path d="M-107.02 353.11L-80.22 667.58" stroke="rgba(58, 19, 101, 1)" stroke-width="1.5"></path><path d="M-107.02 353.11L188.58 540.87" stroke="rgba(58, 19, 101, 1)" stroke-width="1.5"></path><path d="M-38.39 516.96L-38.39 516.96" stroke="rgba(58, 19, 101, 1)" stroke-width="1.5"></path><path d="M-38.39 516.96L46.18 555.28" stroke="rgba(58, 19, 101, 1)" stroke-width="1.5"></path><path d="M-38.39 516.96L-80.22 667.58" stroke="rgba(58, 19, 101, 1)" stroke-width="1.5"></path><path d="M-38.39 516.96L61.32 681.18" stroke="rgba(58, 19, 101, 1)" stroke-width="1.5"></path><path d="M-38.39 516.96L74.54 359.82" stroke="rgba(58, 19, 101, 1)" stroke-width="1.5"></path><path d="M-80.22 667.58L-80.22 667.58" stroke="rgba(58, 19, 101, 1)" stroke-width="1.5"></path><path d="M-80.22 667.58L61.32 681.18" stroke="rgba(58, 19, 101, 1)" stroke-width="1.5"></path><path d="M-80.22 667.58L46.18 555.28" stroke="rgba(58, 19, 101, 1)" stroke-width="1.5"></path><path d="M-80.22 667.58L211.49 708.74" stroke="rgba(58, 19, 101, 1)" stroke-width="1.5"></path><path d="M74.54 359.82L74.54 359.82" stroke="rgba(58, 19, 101, 1)" stroke-width="1.5"></path><path d="M74.54 359.82L193.22 352.81" stroke="rgba(58, 19, 101, 1)" stroke-width="1.5"></path><path d="M74.54 359.82L46.18 555.28" stroke="rgba(58, 19, 101, 1)" stroke-width="1.5"></path><path d="M74.54 359.82L188.58 540.87" stroke="rgba(58, 19, 101, 1)" stroke-width="1.5"></path><path d="M74.54 359.82L359.64 359.45" stroke="rgba(58, 19, 101, 1)" stroke-width="1.5"></path><path d="M46.18 555.28L46.18 555.28" stroke="rgba(58, 19, 101, 1)" stroke-width="1.5"></path><path d="M46.18 555.28L61.32 681.18" stroke="rgba(58, 19, 101, 1)" stroke-width="1.5"></path><path d="M46.18 555.28L188.58 540.87" stroke="rgba(58, 19, 101, 1)" stroke-width="1.5"></path><path d="M61.32 681.18L61.32 681.18" stroke="rgba(58, 19, 101, 1)" stroke-width="1.5"></path><path d="M61.32 681.18L211.49 708.74" stroke="rgba(58, 19, 101, 1)" stroke-width="1.5"></path><path d="M61.32 681.18L188.58 540.87" stroke="rgba(58, 19, 101, 1)" stroke-width="1.5"></path><path d="M193.22 352.81L193.22 352.81" stroke="rgba(58, 19, 101, 1)" stroke-width="1.5"></path><path d="M193.22 352.81L359.64 359.45" stroke="rgba(58, 19, 101, 1)" stroke-width="1.5"></path><path d="M193.22 352.81L188.58 540.87" stroke="rgba(58, 19, 101, 1)" stroke-width="1.5"></path><path d="M193.22 352.81L46.18 555.28" stroke="rgba(58, 19, 101, 1)" stroke-width="1.5"></path><path d="M193.22 352.81L375.64 537.15" stroke="rgba(58, 19, 101, 1)" stroke-width="1.5"></path><path d="M188.58 540.87L188.58 540.87" stroke="rgba(58, 19, 101, 1)" stroke-width="1.5"></path><path d="M188.58 540.87L211.49 708.74" stroke="rgba(58, 19, 101, 1)" stroke-width="1.5"></path><path d="M188.58 540.87L375.64 537.15" stroke="rgba(58, 19, 101, 1)" stroke-width="1.5"></path><path d="M211.49 708.74L211.49 708.74" stroke="rgba(58, 19, 101, 1)" stroke-width="1.5"></path><path d="M359.64 359.45L359.64 359.45" stroke="rgba(58, 19, 101, 1)" stroke-width="1.5"></path><path d="M359.64 359.45L529.89 376.8" stroke="rgba(58, 19, 101, 1)" stroke-width="1.5"></path><path d="M359.64 359.45L375.64 537.15" stroke="rgba(58, 19, 101, 1)" stroke-width="1.5"></path><path d="M359.64 359.45L497.09 547.39" stroke="rgba(58, 19, 101, 1)" stroke-width="1.5"></path><path d="M359.64 359.45L188.58 540.87" stroke="rgba(58, 19, 101, 1)" stroke-width="1.5"></path><path d="M375.64 537.15L375.64 537.15" stroke="rgba(58, 19, 101, 1)" stroke-width="1.5"></path><path d="M375.64 537.15L497.09 547.39" stroke="rgba(58, 19, 101, 1)" stroke-width="1.5"></path><path d="M375.64 537.15L381.7 694.04" stroke="rgba(58, 19, 101, 1)" stroke-width="1.5"></path><path d="M375.64 537.15L499.13 642.17" stroke="rgba(58, 19, 101, 1)" stroke-width="1.5"></path><path d="M381.7 694.04L381.7 694.04" stroke="rgba(58, 19, 101, 1)" stroke-width="1.5"></path><path d="M381.7 694.04L499.13 642.17" stroke="rgba(58, 19, 101, 1)" stroke-width="1.5"></path><path d="M381.7 694.04L211.49 708.74" stroke="rgba(58, 19, 101, 1)" stroke-width="1.5"></path><path d="M381.7 694.04L497.09 547.39" stroke="rgba(58, 19, 101, 1)" stroke-width="1.5"></path><path d="M529.89 376.8L529.89 376.8" stroke="rgba(58, 19, 101, 1)" stroke-width="1.5"></path><path d="M529.89 376.8L669 405.9" stroke="rgba(58, 19, 101, 1)" stroke-width="1.5"></path><path d="M497.09 547.39L497.09 547.39" stroke="rgba(58, 19, 101, 1)" stroke-width="1.5"></path><path d="M497.09 547.39L499.13 642.17" stroke="rgba(58, 19, 101, 1)" stroke-width="1.5"></path><path d="M497.09 547.39L529.89 376.8" stroke="rgba(58, 19, 101, 1)" stroke-width="1.5"></path><path d="M497.09 547.39L701.96 522.88" stroke="rgba(58, 19, 101, 1)" stroke-width="1.5"></path><path d="M497.09 547.39L669 405.9" stroke="rgba(58, 19, 101, 1)" stroke-width="1.5"></path><path d="M499.13 642.17L499.13 642.17" stroke="rgba(58, 19, 101, 1)" stroke-width="1.5"></path><path d="M499.13 642.17L700.71 653.08" stroke="rgba(58, 19, 101, 1)" stroke-width="1.5"></path><path d="M669 405.9L669 405.9" stroke="rgba(58, 19, 101, 1)" stroke-width="1.5"></path><path d="M669 405.9L701.96 522.88" stroke="rgba(58, 19, 101, 1)" stroke-width="1.5"></path><path d="M669 405.9L799.94 394.46" stroke="rgba(58, 19, 101, 1)" stroke-width="1.5"></path><path d="M701.96 522.88L701.96 522.88" stroke="rgba(58, 19, 101, 1)" stroke-width="1.5"></path><path d="M701.96 522.88L809.33 522.82" stroke="rgba(58, 19, 101, 1)" stroke-width="1.5"></path><path d="M701.96 522.88L700.71 653.08" stroke="rgba(58, 19, 101, 1)" stroke-width="1.5"></path><path d="M701.96 522.88L799.94 394.46" stroke="rgba(58, 19, 101, 1)" stroke-width="1.5"></path><path d="M700.71 653.08L700.71 653.08" stroke="rgba(58, 19, 101, 1)" stroke-width="1.5"></path><path d="M700.71 653.08L795.86 654.75" stroke="rgba(58, 19, 101, 1)" stroke-width="1.5"></path><path d="M700.71 653.08L809.33 522.82" stroke="rgba(58, 19, 101, 1)" stroke-width="1.5"></path><path d="M700.71 653.08L497.09 547.39" stroke="rgba(58, 19, 101, 1)" stroke-width="1.5"></path><path d="M700.71 653.08L669 405.9" stroke="rgba(58, 19, 101, 1)" stroke-width="1.5"></path><path d="M850.33 255.96L850.33 255.96" stroke="rgba(58, 19, 101, 1)" stroke-width="1.5"></path><path d="M850.33 255.96L938.54 354.16" stroke="rgba(58, 19, 101, 1)" stroke-width="1.5"></path><path d="M850.33 255.96L979.6 193.54" stroke="rgba(58, 19, 101, 1)" stroke-width="1.5"></path><path d="M850.33 255.96L799.94 394.46" stroke="rgba(58, 19, 101, 1)" stroke-width="1.5"></path><path d="M799.94 394.46L799.94 394.46" stroke="rgba(58, 19, 101, 1)" stroke-width="1.5"></path><path d="M799.94 394.46L809.33 522.82" stroke="rgba(58, 19, 101, 1)" stroke-width="1.5"></path><path d="M799.94 394.46L938.54 354.16" stroke="rgba(58, 19, 101, 1)" stroke-width="1.5"></path><path d="M799.94 394.46L979.11 530.17" stroke="rgba(58, 19, 101, 1)" stroke-width="1.5"></path><path d="M809.33 522.82L809.33 522.82" stroke="rgba(58, 19, 101, 1)" stroke-width="1.5"></path><path d="M795.86 654.75L795.86 654.75" stroke="rgba(58, 19, 101, 1)" stroke-width="1.5"></path><path d="M795.86 654.75L809.33 522.82" stroke="rgba(58, 19, 101, 1)" stroke-width="1.5"></path><path d="M795.86 654.75L701.96 522.88" stroke="rgba(58, 19, 101, 1)" stroke-width="1.5"></path><path d="M795.86 654.75L972.85 697.77" stroke="rgba(58, 19, 101, 1)" stroke-width="1.5"></path><path d="M795.86 654.75L979.11 530.17" stroke="rgba(58, 19, 101, 1)" stroke-width="1.5"></path><path d="M795.86 654.75L799.94 394.46" stroke="rgba(58, 19, 101, 1)" stroke-width="1.5"></path><path d="M980.98 -98.25L980.98 -98.25" stroke="rgba(58, 19, 101, 1)" stroke-width="1.5"></path><path d="M980.98 -98.25L1129.34 -105.22" stroke="rgba(58, 19, 101, 1)" stroke-width="1.5"></path><path d="M980.98 -98.25L939.84 61.75" stroke="rgba(58, 19, 101, 1)" stroke-width="1.5"></path><path d="M939.84 61.75L939.84 61.75" stroke="rgba(58, 19, 101, 1)" stroke-width="1.5"></path><path d="M939.84 61.75L979.6 193.54" stroke="rgba(58, 19, 101, 1)" stroke-width="1.5"></path><path d="M979.6 193.54L979.6 193.54" stroke="rgba(58, 19, 101, 1)" stroke-width="1.5"></path><path d="M979.6 193.54L1124.6 203.49" stroke="rgba(58, 19, 101, 1)" stroke-width="1.5"></path><path d="M979.6 193.54L938.54 354.16" stroke="rgba(58, 19, 101, 1)" stroke-width="1.5"></path><path d="M979.6 193.54L1132.3 48.17" stroke="rgba(58, 19, 101, 1)" stroke-width="1.5"></path><path d="M938.54 354.16L938.54 354.16" stroke="rgba(58, 19, 101, 1)" stroke-width="1.5"></path><path d="M979.11 530.17L979.11 530.17" stroke="rgba(58, 19, 101, 1)" stroke-width="1.5"></path><path d="M979.11 530.17L1139.05 497.17" stroke="rgba(58, 19, 101, 1)" stroke-width="1.5"></path><path d="M979.11 530.17L972.85 697.77" stroke="rgba(58, 19, 101, 1)" stroke-width="1.5"></path><path d="M979.11 530.17L809.33 522.82" stroke="rgba(58, 19, 101, 1)" stroke-width="1.5"></path><path d="M979.11 530.17L938.54 354.16" stroke="rgba(58, 19, 101, 1)" stroke-width="1.5"></path><path d="M979.11 530.17L1144.18 663.99" stroke="rgba(58, 19, 101, 1)" stroke-width="1.5"></path><path d="M972.85 697.77L972.85 697.77" stroke="rgba(58, 19, 101, 1)" stroke-width="1.5"></path><path d="M972.85 697.77L1144.18 663.99" stroke="rgba(58, 19, 101, 1)" stroke-width="1.5"></path><path d="M1129.34 -105.22L1129.34 -105.22" stroke="rgba(58, 19, 101, 1)" stroke-width="1.5"></path><path d="M1129.34 -105.22L1132.3 48.17" stroke="rgba(58, 19, 101, 1)" stroke-width="1.5"></path><path d="M1129.34 -105.22L1311.12 -83.63" stroke="rgba(58, 19, 101, 1)" stroke-width="1.5"></path><path d="M1129.34 -105.22L1266.65 56.99" stroke="rgba(58, 19, 101, 1)" stroke-width="1.5"></path><path d="M1129.34 -105.22L939.84 61.75" stroke="rgba(58, 19, 101, 1)" stroke-width="1.5"></path><path d="M1132.3 48.17L1132.3 48.17" stroke="rgba(58, 19, 101, 1)" stroke-width="1.5"></path><path d="M1132.3 48.17L1266.65 56.99" stroke="rgba(58, 19, 101, 1)" stroke-width="1.5"></path><path d="M1132.3 48.17L1124.6 203.49" stroke="rgba(58, 19, 101, 1)" stroke-width="1.5"></path><path d="M1132.3 48.17L939.84 61.75" stroke="rgba(58, 19, 101, 1)" stroke-width="1.5"></path><path d="M1132.3 48.17L980.98 -98.25" stroke="rgba(58, 19, 101, 1)" stroke-width="1.5"></path><path d="M1124.6 203.49L1124.6 203.49" stroke="rgba(58, 19, 101, 1)" stroke-width="1.5"></path><path d="M1124.6 203.49L1311.77 246.48" stroke="rgba(58, 19, 101, 1)" stroke-width="1.5"></path><path d="M1124.6 203.49L1266.65 56.99" stroke="rgba(58, 19, 101, 1)" stroke-width="1.5"></path><path d="M1139.05 497.17L1139.05 497.17" stroke="rgba(58, 19, 101, 1)" stroke-width="1.5"></path><path d="M1139.05 497.17L1293.19 517.74" stroke="rgba(58, 19, 101, 1)" stroke-width="1.5"></path><path d="M1144.18 663.99L1144.18 663.99" stroke="rgba(58, 19, 101, 1)" stroke-width="1.5"></path><path d="M1144.18 663.99L1277.71 673.58" stroke="rgba(58, 19, 101, 1)" stroke-width="1.5"></path><path d="M1144.18 663.99L1139.05 497.17" stroke="rgba(58, 19, 101, 1)" stroke-width="1.5"></path><path d="M1311.12 -83.63L1311.12 -83.63" stroke="rgba(58, 19, 101, 1)" stroke-width="1.5"></path><path d="M1311.12 -83.63L1415.87 -59.64" stroke="rgba(58, 19, 101, 1)" stroke-width="1.5"></path><path d="M1311.12 -83.63L1266.65 56.99" stroke="rgba(58, 19, 101, 1)" stroke-width="1.5"></path><path d="M1266.65 56.99L1266.65 56.99" stroke="rgba(58, 19, 101, 1)" stroke-width="1.5"></path><path d="M1266.65 56.99L1402.96 100.02" stroke="rgba(58, 19, 101, 1)" stroke-width="1.5"></path><path d="M1266.65 56.99L1415.87 -59.64" stroke="rgba(58, 19, 101, 1)" stroke-width="1.5"></path><path d="M1311.77 246.48L1311.77 246.48" stroke="rgba(58, 19, 101, 1)" stroke-width="1.5"></path><path d="M1311.77 246.48L1418.27 249.1" stroke="rgba(58, 19, 101, 1)" stroke-width="1.5"></path><path d="M1311.77 246.48L1299.74 366.63" stroke="rgba(58, 19, 101, 1)" stroke-width="1.5"></path><path d="M1311.77 246.48L1402.96 100.02" stroke="rgba(58, 19, 101, 1)" stroke-width="1.5"></path><path d="M1311.77 246.48L1462.16 351.75" stroke="rgba(58, 19, 101, 1)" stroke-width="1.5"></path><path d="M1311.77 246.48L1266.65 56.99" stroke="rgba(58, 19, 101, 1)" stroke-width="1.5"></path><path d="M1299.74 366.63L1299.74 366.63" stroke="rgba(58, 19, 101, 1)" stroke-width="1.5"></path><path d="M1299.74 366.63L1293.19 517.74" stroke="rgba(58, 19, 101, 1)" stroke-width="1.5"></path><path d="M1299.74 366.63L1462.16 351.75" stroke="rgba(58, 19, 101, 1)" stroke-width="1.5"></path><path d="M1293.19 517.74L1293.19 517.74" stroke="rgba(58, 19, 101, 1)" stroke-width="1.5"></path><path d="M1293.19 517.74L1411.71 500.85" stroke="rgba(58, 19, 101, 1)" stroke-width="1.5"></path><path d="M1293.19 517.74L1277.71 673.58" stroke="rgba(58, 19, 101, 1)" stroke-width="1.5"></path><path d="M1293.19 517.74L1144.18 663.99" stroke="rgba(58, 19, 101, 1)" stroke-width="1.5"></path><path d="M1277.71 673.58L1277.71 673.58" stroke="rgba(58, 19, 101, 1)" stroke-width="1.5"></path><path d="M1415.87 -59.64L1415.87 -59.64" stroke="rgba(58, 19, 101, 1)" stroke-width="1.5"></path><path d="M1415.87 -59.64L1402.96 100.02" stroke="rgba(58, 19, 101, 1)" stroke-width="1.5"></path><path d="M1402.96 100.02L1402.96 100.02" stroke="rgba(58, 19, 101, 1)" stroke-width="1.5"></path><path d="M1402.96 100.02L1418.27 249.1" stroke="rgba(58, 19, 101, 1)" stroke-width="1.5"></path><path d="M1418.27 249.1L1418.27 249.1" stroke="rgba(58, 19, 101, 1)" stroke-width="1.5"></path><path d="M1418.27 249.1L1462.16 351.75" stroke="rgba(58, 19, 101, 1)" stroke-width="1.5"></path><path d="M1418.27 249.1L1553.69 213.75" stroke="rgba(58, 19, 101, 1)" stroke-width="1.5"></path><path d="M1462.16 351.75L1462.16 351.75" stroke="rgba(58, 19, 101, 1)" stroke-width="1.5"></path><path d="M1462.16 351.75L1610.07 358.24" stroke="rgba(58, 19, 101, 1)" stroke-width="1.5"></path><path d="M1411.71 500.85L1411.71 500.85" stroke="rgba(58, 19, 101, 1)" stroke-width="1.5"></path><path d="M1411.71 500.85L1462.16 351.75" stroke="rgba(58, 19, 101, 1)" stroke-width="1.5"></path><path d="M1411.71 500.85L1576.99 535.07" stroke="rgba(58, 19, 101, 1)" stroke-width="1.5"></path><path d="M1411.71 500.85L1435.99 672.8" stroke="rgba(58, 19, 101, 1)" stroke-width="1.5"></path><path d="M1411.71 500.85L1299.74 366.63" stroke="rgba(58, 19, 101, 1)" stroke-width="1.5"></path><path d="M1411.71 500.85L1277.71 673.58" stroke="rgba(58, 19, 101, 1)" stroke-width="1.5"></path><path d="M1435.99 672.8L1435.99 672.8" stroke="rgba(58, 19, 101, 1)" stroke-width="1.5"></path><path d="M1435.99 672.8L1583.68 707.44" stroke="rgba(58, 19, 101, 1)" stroke-width="1.5"></path><path d="M1435.99 672.8L1277.71 673.58" stroke="rgba(58, 19, 101, 1)" stroke-width="1.5"></path><path d="M1590.56 -104.05L1590.56 -104.05" stroke="rgba(58, 19, 101, 1)" stroke-width="1.5"></path><path d="M1590.56 -104.05L1415.87 -59.64" stroke="rgba(58, 19, 101, 1)" stroke-width="1.5"></path><path d="M1590.56 -104.05L1580.23 98.56" stroke="rgba(58, 19, 101, 1)" stroke-width="1.5"></path><path d="M1590.56 -104.05L1402.96 100.02" stroke="rgba(58, 19, 101, 1)" stroke-width="1.5"></path><path d="M1590.56 -104.05L1311.12 -83.63" stroke="rgba(58, 19, 101, 1)" stroke-width="1.5"></path><path d="M1580.23 98.56L1580.23 98.56" stroke="rgba(58, 19, 101, 1)" stroke-width="1.5"></path><path d="M1580.23 98.56L1553.69 213.75" stroke="rgba(58, 19, 101, 1)" stroke-width="1.5"></path><path d="M1580.23 98.56L1402.96 100.02" stroke="rgba(58, 19, 101, 1)" stroke-width="1.5"></path><path d="M1553.69 213.75L1553.69 213.75" stroke="rgba(58, 19, 101, 1)" stroke-width="1.5"></path><path d="M1610.07 358.24L1610.07 358.24" stroke="rgba(58, 19, 101, 1)" stroke-width="1.5"></path><path d="M1610.07 358.24L1553.69 213.75" stroke="rgba(58, 19, 101, 1)" stroke-width="1.5"></path><path d="M1610.07 358.24L1576.99 535.07" stroke="rgba(58, 19, 101, 1)" stroke-width="1.5"></path><path d="M1610.07 358.24L1418.27 249.1" stroke="rgba(58, 19, 101, 1)" stroke-width="1.5"></path><path d="M1610.07 358.24L1411.71 500.85" stroke="rgba(58, 19, 101, 1)" stroke-width="1.5"></path><path d="M1610.07 358.24L1580.23 98.56" stroke="rgba(58, 19, 101, 1)" stroke-width="1.5"></path><path d="M1576.99 535.07L1576.99 535.07" stroke="rgba(58, 19, 101, 1)" stroke-width="1.5"></path><path d="M1576.99 535.07L1583.68 707.44" stroke="rgba(58, 19, 101, 1)" stroke-width="1.5"></path><path d="M1583.68 707.44L1583.68 707.44" stroke="rgba(58, 19, 101, 1)" stroke-width="1.5"></path><path d="M1583.68 707.44L1411.71 500.85" stroke="rgba(58, 19, 101, 1)" stroke-width="1.5"></path><path d="M1583.68 707.44L1277.71 673.58" stroke="rgba(58, 19, 101, 1)" stroke-width="1.5"></path><path d="M1583.68 707.44L1293.19 517.74" stroke="rgba(58, 19, 101, 1)" stroke-width="1.5"></path><circle r="5" cx="-107.02" cy="353.11" fill="rgba(58, 19, 101, 1)"></circle><circle r="5" cx="-38.39" cy="516.96" fill="rgba(58, 19, 101, 1)"></circle><circle r="5" cx="-80.22" cy="667.58" fill="rgba(58, 19, 101, 1)"></circle><circle r="5" cx="74.54" cy="359.82" fill="rgba(58, 19, 101, 1)"></circle><circle r="5" cx="46.18" cy="555.28" fill="rgba(58, 19, 101, 1)"></circle><circle r="5" cx="61.32" cy="681.18" fill="rgba(58, 19, 101, 1)"></circle><circle r="5" cx="193.22" cy="352.81" fill="rgba(58, 19, 101, 1)"></circle><circle r="5" cx="188.58" cy="540.87" fill="rgba(58, 19, 101, 1)"></circle><circle r="5" cx="211.49" cy="708.74" fill="rgba(58, 19, 101, 1)"></circle><circle r="5" cx="359.64" cy="359.45" fill="rgba(58, 19, 101, 1)"></circle><circle r="5" cx="375.64" cy="537.15" fill="rgba(58, 19, 101, 1)"></circle><circle r="5" cx="381.7" cy="694.04" fill="rgba(58, 19, 101, 1)"></circle><circle r="5" cx="529.89" cy="376.8" fill="rgba(58, 19, 101, 1)"></circle><circle r="5" cx="497.09" cy="547.39" fill="rgba(58, 19, 101, 1)"></circle><circle r="5" cx="499.13" cy="642.17" fill="rgba(58, 19, 101, 1)"></circle><circle r="5" cx="669" cy="405.9" fill="rgba(58, 19, 101, 1)"></circle><circle r="5" cx="701.96" cy="522.88" fill="rgba(58, 19, 101, 1)"></circle><circle r="5" cx="700.71" cy="653.08" fill="rgba(58, 19, 101, 1)"></circle><circle r="5" cx="850.33" cy="255.96" fill="rgba(58, 19, 101, 1)"></circle><circle r="5" cx="799.94" cy="394.46" fill="rgba(58, 19, 101, 1)"></circle><circle r="5" cx="809.33" cy="522.82" fill="rgba(58, 19, 101, 1)"></circle><circle r="5" cx="795.86" cy="654.75" fill="rgba(58, 19, 101, 1)"></circle><circle r="5" cx="980.98" cy="-98.25" fill="rgba(58, 19, 101, 1)"></circle><circle r="5" cx="939.84" cy="61.75" fill="rgba(58, 19, 101, 1)"></circle><circle r="5" cx="979.6" cy="193.54" fill="rgba(58, 19, 101, 1)"></circle><circle r="5" cx="938.54" cy="354.16" fill="rgba(58, 19, 101, 1)"></circle><circle r="5" cx="979.11" cy="530.17" fill="rgba(58, 19, 101, 1)"></circle><circle r="5" cx="972.85" cy="697.77" fill="rgba(58, 19, 101, 1)"></circle><circle r="5" cx="1129.34" cy="-105.22" fill="rgba(58, 19, 101, 1)"></circle><circle r="5" cx="1132.3" cy="48.17" fill="rgba(58, 19, 101, 1)"></circle><circle r="5" cx="1124.6" cy="203.49" fill="rgba(58, 19, 101, 1)"></circle><circle r="5" cx="1139.05" cy="497.17" fill="rgba(58, 19, 101, 1)"></circle><circle r="5" cx="1144.18" cy="663.99" fill="rgba(58, 19, 101, 1)"></circle><circle r="5" cx="1311.12" cy="-83.63" fill="rgba(58, 19, 101, 1)"></circle><circle r="5" cx="1266.65" cy="56.99" fill="rgba(58, 19, 101, 1)"></circle><circle r="5" cx="1311.77" cy="246.48" fill="rgba(58, 19, 101, 1)"></circle><circle r="5" cx="1299.74" cy="366.63" fill="rgba(58, 19, 101, 1)"></circle><circle r="5" cx="1293.19" cy="517.74" fill="rgba(58, 19, 101, 1)"></circle><circle r="5" cx="1277.71" cy="673.58" fill="rgba(58, 19, 101, 1)"></circle><circle r="5" cx="1415.87" cy="-59.64" fill="rgba(58, 19, 101, 1)"></circle><circle r="5" cx="1402.96" cy="100.02" fill="rgba(58, 19, 101, 1)"></circle><circle r="5" cx="1418.27" cy="249.1" fill="rgba(58, 19, 101, 1)"></circle><circle r="5" cx="1462.16" cy="351.75" fill="rgba(58, 19, 101, 1)"></circle><circle r="5" cx="1411.71" cy="500.85" fill="rgba(58, 19, 101, 1)"></circle><circle r="5" cx="1435.99" cy="672.8" fill="rgba(58, 19, 101, 1)"></circle><circle r="5" cx="1590.56" cy="-104.05" fill="rgba(58, 19, 101, 1)"></circle><circle r="5" cx="1580.23" cy="98.56" fill="rgba(58, 19, 101, 1)"></circle><circle r="5" cx="1553.69" cy="213.75" fill="rgba(58, 19, 101, 1)"></circle><circle r="5" cx="1610.07" cy="358.24" fill="rgba(58, 19, 101, 1)"></circle><circle r="5" cx="1576.99" cy="535.07" fill="rgba(58, 19, 101, 1)"></circle><circle r="5" cx="1583.68" cy="707.44" fill="rgba(58, 19, 101, 1)"></circle><path d="M-91.25 504.97L-91.25 504.97" stroke="hsl(228.5, 77.2%, 51.5%)" stroke-width="1.5"></path><path d="M-91.25 504.97L-82.85 708.95" stroke="hsl(228.5, 77.2%, 51.5%)" stroke-width="1.5"></path><path d="M-91.25 504.97L64.82 702.91" stroke="hsl(228.5, 77.2%, 51.5%)" stroke-width="1.5"></path><path d="M-91.25 504.97L200.28 647.44" stroke="hsl(228.5, 77.2%, 51.5%)" stroke-width="1.5"></path><path d="M-91.25 504.97L234.68 536.5" stroke="hsl(228.5, 77.2%, 51.5%)" stroke-width="1.5"></path><path d="M-91.25 504.97L358.02 662.19" stroke="hsl(228.5, 77.2%, 51.5%)" stroke-width="1.5"></path><path d="M200.28 647.44L200.28 647.44" stroke="hsl(228.5, 77.2%, 51.5%)" stroke-width="1.5"></path><path d="M200.28 647.44L234.68 536.5" stroke="hsl(228.5, 77.2%, 51.5%)" stroke-width="1.5"></path><path d="M200.28 647.44L64.82 702.91" stroke="hsl(228.5, 77.2%, 51.5%)" stroke-width="1.5"></path><path d="M407.86 504.26L407.86 504.26" stroke="hsl(228.5, 77.2%, 51.5%)" stroke-width="1.5"></path><path d="M407.86 504.26L526.73 516.81" stroke="hsl(228.5, 77.2%, 51.5%)" stroke-width="1.5"></path><path d="M407.86 504.26L503.76 408.42" stroke="hsl(228.5, 77.2%, 51.5%)" stroke-width="1.5"></path><path d="M407.86 504.26L358.02 662.19" stroke="hsl(228.5, 77.2%, 51.5%)" stroke-width="1.5"></path><path d="M407.86 504.26L234.68 536.5" stroke="hsl(228.5, 77.2%, 51.5%)" stroke-width="1.5"></path><path d="M407.86 504.26L499.65 705.07" stroke="hsl(228.5, 77.2%, 51.5%)" stroke-width="1.5"></path><path d="M407.86 504.26L200.28 647.44" stroke="hsl(228.5, 77.2%, 51.5%)" stroke-width="1.5"></path><path d="M794.82 340.41L794.82 340.41" stroke="hsl(228.5, 77.2%, 51.5%)" stroke-width="1.5"></path><path d="M794.82 340.41L667.85 394.88" stroke="hsl(228.5, 77.2%, 51.5%)" stroke-width="1.5"></path><path d="M794.82 340.41L961.85 374.61" stroke="hsl(228.5, 77.2%, 51.5%)" stroke-width="1.5"></path><path d="M835.52 506.82L835.52 506.82" stroke="hsl(228.5, 77.2%, 51.5%)" stroke-width="1.5"></path><path d="M835.52 506.82L794.82 340.41" stroke="hsl(228.5, 77.2%, 51.5%)" stroke-width="1.5"></path><path d="M835.52 506.82L1007.08 494.86" stroke="hsl(228.5, 77.2%, 51.5%)" stroke-width="1.5"></path><path d="M835.52 506.82L799.27 675.92" stroke="hsl(228.5, 77.2%, 51.5%)" stroke-width="1.5"></path><path d="M835.52 506.82L961.85 374.61" stroke="hsl(228.5, 77.2%, 51.5%)" stroke-width="1.5"></path><path d="M970.13 705.56L970.13 705.56" stroke="hsl(228.5, 77.2%, 51.5%)" stroke-width="1.5"></path><path d="M970.13 705.56L1098.51 686.51" stroke="hsl(228.5, 77.2%, 51.5%)" stroke-width="1.5"></path><path d="M970.13 705.56L799.27 675.92" stroke="hsl(228.5, 77.2%, 51.5%)" stroke-width="1.5"></path><path d="M970.13 705.56L1114.61 554.46" stroke="hsl(228.5, 77.2%, 51.5%)" stroke-width="1.5"></path><path d="M1134.65 188.51L1134.65 188.51" stroke="hsl(228.5, 77.2%, 51.5%)" stroke-width="1.5"></path><path d="M1134.65 188.51L1160.49 363.96" stroke="hsl(228.5, 77.2%, 51.5%)" stroke-width="1.5"></path><path d="M1134.65 188.51L1249.67 45.37" stroke="hsl(228.5, 77.2%, 51.5%)" stroke-width="1.5"></path><path d="M1134.65 188.51L1310.93 356.97" stroke="hsl(228.5, 77.2%, 51.5%)" stroke-width="1.5"></path><path d="M1134.65 188.51L961.85 374.61" stroke="hsl(228.5, 77.2%, 51.5%)" stroke-width="1.5"></path><path d="M1310.93 356.97L1310.93 356.97" stroke="hsl(228.5, 77.2%, 51.5%)" stroke-width="1.5"></path><path d="M1310.93 356.97L1410.33 370.46" stroke="hsl(228.5, 77.2%, 51.5%)" stroke-width="1.5"></path><path d="M1310.93 356.97L1160.49 363.96" stroke="hsl(228.5, 77.2%, 51.5%)" stroke-width="1.5"></path><path d="M1310.93 356.97L1269.2 506.03" stroke="hsl(228.5, 77.2%, 51.5%)" stroke-width="1.5"></path><path d="M1269.2 506.03L1269.2 506.03" stroke="hsl(228.5, 77.2%, 51.5%)" stroke-width="1.5"></path><path d="M1269.2 506.03L1114.61 554.46" stroke="hsl(228.5, 77.2%, 51.5%)" stroke-width="1.5"></path><path d="M1269.2 506.03L1431.54 532.65" stroke="hsl(228.5, 77.2%, 51.5%)" stroke-width="1.5"></path><path d="M1269.2 506.03L1249.33 676.05" stroke="hsl(228.5, 77.2%, 51.5%)" stroke-width="1.5"></path><path d="M1269.2 506.03L1160.49 363.96" stroke="hsl(228.5, 77.2%, 51.5%)" stroke-width="1.5"></path><path d="M1269.2 506.03L1410.33 370.46" stroke="hsl(228.5, 77.2%, 51.5%)" stroke-width="1.5"></path><path d="M1423.98 83.15L1423.98 83.15" stroke="hsl(228.5, 77.2%, 51.5%)" stroke-width="1.5"></path><path d="M1423.98 83.15L1437.27 198.65" stroke="hsl(228.5, 77.2%, 51.5%)" stroke-width="1.5"></path><path d="M1423.98 83.15L1565.78 110.15" stroke="hsl(228.5, 77.2%, 51.5%)" stroke-width="1.5"></path><path d="M1423.98 83.15L1402.76 -87.12" stroke="hsl(228.5, 77.2%, 51.5%)" stroke-width="1.5"></path><path d="M1423.98 83.15L1249.67 45.37" stroke="hsl(228.5, 77.2%, 51.5%)" stroke-width="1.5"></path><path d="M1568.08 214L1568.08 214" stroke="hsl(228.5, 77.2%, 51.5%)" stroke-width="1.5"></path><path d="M1568.08 214L1565.78 110.15" stroke="hsl(228.5, 77.2%, 51.5%)" stroke-width="1.5"></path><path d="M1568.08 214L1437.27 198.65" stroke="hsl(228.5, 77.2%, 51.5%)" stroke-width="1.5"></path><path d="M1568.08 214L1586.67 360.66" stroke="hsl(228.5, 77.2%, 51.5%)" stroke-width="1.5"></path><path d="M1568.08 214L1423.98 83.15" stroke="hsl(228.5, 77.2%, 51.5%)" stroke-width="1.5"></path><path d="M1568.08 214L1410.33 370.46" stroke="hsl(228.5, 77.2%, 51.5%)" stroke-width="1.5"></path><path d="M-82.85 708.95L-82.85 708.95" stroke="hsl(228.5, 77.2%, 51.5%)" stroke-width="1.5"></path><path d="M-82.85 708.95L64.82 702.91" stroke="hsl(228.5, 77.2%, 51.5%)" stroke-width="1.5"></path><path d="M64.82 702.91L64.82 702.91" stroke="hsl(228.5, 77.2%, 51.5%)" stroke-width="1.5"></path><path d="M234.68 536.5L234.68 536.5" stroke="hsl(228.5, 77.2%, 51.5%)" stroke-width="1.5"></path><path d="M234.68 536.5L358.02 662.19" stroke="hsl(228.5, 77.2%, 51.5%)" stroke-width="1.5"></path><path d="M358.02 662.19L358.02 662.19" stroke="hsl(228.5, 77.2%, 51.5%)" stroke-width="1.5"></path><path d="M358.02 662.19L499.65 705.07" stroke="hsl(228.5, 77.2%, 51.5%)" stroke-width="1.5"></path><path d="M358.02 662.19L200.28 647.44" stroke="hsl(228.5, 77.2%, 51.5%)" stroke-width="1.5"></path><path d="M503.76 408.42L503.76 408.42" stroke="hsl(228.5, 77.2%, 51.5%)" stroke-width="1.5"></path><path d="M503.76 408.42L526.73 516.81" stroke="hsl(228.5, 77.2%, 51.5%)" stroke-width="1.5"></path><path d="M503.76 408.42L667.85 394.88" stroke="hsl(228.5, 77.2%, 51.5%)" stroke-width="1.5"></path><path d="M503.76 408.42L659.02 560.25" stroke="hsl(228.5, 77.2%, 51.5%)" stroke-width="1.5"></path><path d="M503.76 408.42L358.02 662.19" stroke="hsl(228.5, 77.2%, 51.5%)" stroke-width="1.5"></path><path d="M503.76 408.42L499.65 705.07" stroke="hsl(228.5, 77.2%, 51.5%)" stroke-width="1.5"></path><path d="M526.73 516.81L526.73 516.81" stroke="hsl(228.5, 77.2%, 51.5%)" stroke-width="1.5"></path><path d="M526.73 516.81L659.02 560.25" stroke="hsl(228.5, 77.2%, 51.5%)" stroke-width="1.5"></path><path d="M499.65 705.07L499.65 705.07" stroke="hsl(228.5, 77.2%, 51.5%)" stroke-width="1.5"></path><path d="M499.65 705.07L526.73 516.81" stroke="hsl(228.5, 77.2%, 51.5%)" stroke-width="1.5"></path><path d="M499.65 705.07L659.02 560.25" stroke="hsl(228.5, 77.2%, 51.5%)" stroke-width="1.5"></path><path d="M667.85 394.88L667.85 394.88" stroke="hsl(228.5, 77.2%, 51.5%)" stroke-width="1.5"></path><path d="M667.85 394.88L659.02 560.25" stroke="hsl(228.5, 77.2%, 51.5%)" stroke-width="1.5"></path><path d="M659.02 560.25L659.02 560.25" stroke="hsl(228.5, 77.2%, 51.5%)" stroke-width="1.5"></path><path d="M799.27 675.92L799.27 675.92" stroke="hsl(228.5, 77.2%, 51.5%)" stroke-width="1.5"></path><path d="M799.27 675.92L659.02 560.25" stroke="hsl(228.5, 77.2%, 51.5%)" stroke-width="1.5"></path><path d="M799.27 675.92L1007.08 494.86" stroke="hsl(228.5, 77.2%, 51.5%)" stroke-width="1.5"></path><path d="M961.85 374.61L961.85 374.61" stroke="hsl(228.5, 77.2%, 51.5%)" stroke-width="1.5"></path><path d="M961.85 374.61L1007.08 494.86" stroke="hsl(228.5, 77.2%, 51.5%)" stroke-width="1.5"></path><path d="M1007.08 494.86L1007.08 494.86" stroke="hsl(228.5, 77.2%, 51.5%)" stroke-width="1.5"></path><path d="M1007.08 494.86L1114.61 554.46" stroke="hsl(228.5, 77.2%, 51.5%)" stroke-width="1.5"></path><path d="M1007.08 494.86L1160.49 363.96" stroke="hsl(228.5, 77.2%, 51.5%)" stroke-width="1.5"></path><path d="M1007.08 494.86L1098.51 686.51" stroke="hsl(228.5, 77.2%, 51.5%)" stroke-width="1.5"></path><path d="M1007.08 494.86L970.13 705.56" stroke="hsl(228.5, 77.2%, 51.5%)" stroke-width="1.5"></path><path d="M1160.49 363.96L1160.49 363.96" stroke="hsl(228.5, 77.2%, 51.5%)" stroke-width="1.5"></path><path d="M1114.61 554.46L1114.61 554.46" stroke="hsl(228.5, 77.2%, 51.5%)" stroke-width="1.5"></path><path d="M1114.61 554.46L1098.51 686.51" stroke="hsl(228.5, 77.2%, 51.5%)" stroke-width="1.5"></path><path d="M1098.51 686.51L1098.51 686.51" stroke="hsl(228.5, 77.2%, 51.5%)" stroke-width="1.5"></path><path d="M1098.51 686.51L1249.33 676.05" stroke="hsl(228.5, 77.2%, 51.5%)" stroke-width="1.5"></path><path d="M1098.51 686.51L1269.2 506.03" stroke="hsl(228.5, 77.2%, 51.5%)" stroke-width="1.5"></path><path d="M1270.35 -74.25L1270.35 -74.25" stroke="hsl(228.5, 77.2%, 51.5%)" stroke-width="1.5"></path><path d="M1270.35 -74.25L1249.67 45.37" stroke="hsl(228.5, 77.2%, 51.5%)" stroke-width="1.5"></path><path d="M1270.35 -74.25L1402.76 -87.12" stroke="hsl(228.5, 77.2%, 51.5%)" stroke-width="1.5"></path><path d="M1249.67 45.37L1249.67 45.37" stroke="hsl(228.5, 77.2%, 51.5%)" stroke-width="1.5"></path><path d="M1249.33 676.05L1249.33 676.05" stroke="hsl(228.5, 77.2%, 51.5%)" stroke-width="1.5"></path><path d="M1249.33 676.05L1400.76 712.11" stroke="hsl(228.5, 77.2%, 51.5%)" stroke-width="1.5"></path><path d="M1402.76 -87.12L1402.76 -87.12" stroke="hsl(228.5, 77.2%, 51.5%)" stroke-width="1.5"></path><path d="M1402.76 -87.12L1571.6 -100.89" stroke="hsl(228.5, 77.2%, 51.5%)" stroke-width="1.5"></path><path d="M1402.76 -87.12L1249.67 45.37" stroke="hsl(228.5, 77.2%, 51.5%)" stroke-width="1.5"></path><path d="M1402.76 -87.12L1565.78 110.15" stroke="hsl(228.5, 77.2%, 51.5%)" stroke-width="1.5"></path><path d="M1402.76 -87.12L1437.27 198.65" stroke="hsl(228.5, 77.2%, 51.5%)" stroke-width="1.5"></path><path d="M1437.27 198.65L1437.27 198.65" stroke="hsl(228.5, 77.2%, 51.5%)" stroke-width="1.5"></path><path d="M1410.33 370.46L1410.33 370.46" stroke="hsl(228.5, 77.2%, 51.5%)" stroke-width="1.5"></path><path d="M1410.33 370.46L1431.54 532.65" stroke="hsl(228.5, 77.2%, 51.5%)" stroke-width="1.5"></path><path d="M1431.54 532.65L1431.54 532.65" stroke="hsl(228.5, 77.2%, 51.5%)" stroke-width="1.5"></path><path d="M1431.54 532.65L1561.4 511.88" stroke="hsl(228.5, 77.2%, 51.5%)" stroke-width="1.5"></path><path d="M1400.76 712.11L1400.76 712.11" stroke="hsl(228.5, 77.2%, 51.5%)" stroke-width="1.5"></path><path d="M1400.76 712.11L1557.9 644.19" stroke="hsl(228.5, 77.2%, 51.5%)" stroke-width="1.5"></path><path d="M1400.76 712.11L1431.54 532.65" stroke="hsl(228.5, 77.2%, 51.5%)" stroke-width="1.5"></path><path d="M1400.76 712.11L1269.2 506.03" stroke="hsl(228.5, 77.2%, 51.5%)" stroke-width="1.5"></path><path d="M1400.76 712.11L1561.4 511.88" stroke="hsl(228.5, 77.2%, 51.5%)" stroke-width="1.5"></path><path d="M1400.76 712.11L1098.51 686.51" stroke="hsl(228.5, 77.2%, 51.5%)" stroke-width="1.5"></path><path d="M1571.6 -100.89L1571.6 -100.89" stroke="hsl(228.5, 77.2%, 51.5%)" stroke-width="1.5"></path><path d="M1571.6 -100.89L1565.78 110.15" stroke="hsl(228.5, 77.2%, 51.5%)" stroke-width="1.5"></path><path d="M1565.78 110.15L1565.78 110.15" stroke="hsl(228.5, 77.2%, 51.5%)" stroke-width="1.5"></path><path d="M1586.67 360.66L1586.67 360.66" stroke="hsl(228.5, 77.2%, 51.5%)" stroke-width="1.5"></path><path d="M1586.67 360.66L1561.4 511.88" stroke="hsl(228.5, 77.2%, 51.5%)" stroke-width="1.5"></path><path d="M1586.67 360.66L1410.33 370.46" stroke="hsl(228.5, 77.2%, 51.5%)" stroke-width="1.5"></path><path d="M1561.4 511.88L1561.4 511.88" stroke="hsl(228.5, 77.2%, 51.5%)" stroke-width="1.5"></path><path d="M1561.4 511.88L1557.9 644.19" stroke="hsl(228.5, 77.2%, 51.5%)" stroke-width="1.5"></path><path d="M1557.9 644.19L1557.9 644.19" stroke="hsl(228.5, 77.2%, 51.5%)" stroke-width="1.5"></path><path d="M1557.9 644.19L1431.54 532.65" stroke="hsl(228.5, 77.2%, 51.5%)" stroke-width="1.5"></path><path d="M1557.9 644.19L1586.67 360.66" stroke="hsl(228.5, 77.2%, 51.5%)" stroke-width="1.5"></path><path d="M1557.9 644.19L1249.33 676.05" stroke="hsl(228.5, 77.2%, 51.5%)" stroke-width="1.5"></path><path d="M1557.9 644.19L1410.33 370.46" stroke="hsl(228.5, 77.2%, 51.5%)" stroke-width="1.5"></path><circle r="25" cx="-91.25" cy="504.97" fill="url(#SvgjsRadialGradient1003)"></circle><circle r="25" cx="200.28" cy="647.44" fill="url(#SvgjsRadialGradient1003)"></circle><circle r="25" cx="407.86" cy="504.26" fill="url(#SvgjsRadialGradient1003)"></circle><circle r="25" cx="794.82" cy="340.41" fill="url(#SvgjsRadialGradient1003)"></circle><circle r="25" cx="835.52" cy="506.82" fill="url(#SvgjsRadialGradient1003)"></circle><circle r="25" cx="970.13" cy="705.56" fill="url(#SvgjsRadialGradient1003)"></circle><circle r="25" cx="1134.65" cy="188.51" fill="url(#SvgjsRadialGradient1003)"></circle><circle r="25" cx="1310.93" cy="356.97" fill="url(#SvgjsRadialGradient1003)"></circle><circle r="25" cx="1269.2" cy="506.03" fill="url(#SvgjsRadialGradient1003)"></circle><circle r="25" cx="1423.98" cy="83.15" fill="url(#SvgjsRadialGradient1003)"></circle><circle r="25" cx="1568.08" cy="214" fill="url(#SvgjsRadialGradient1003)"></circle><circle r="5" cx="-82.85" cy="708.95" fill="#8b9ad9"></circle><circle r="5" cx="64.82" cy="702.91" fill="#8b9ad9"></circle><circle r="5" cx="234.68" cy="536.5" fill="#8b9ad9"></circle><circle r="5" cx="358.02" cy="662.19" fill="#8b9ad9"></circle><circle r="5" cx="503.76" cy="408.42" fill="#8b9ad9"></circle><circle r="5" cx="526.73" cy="516.81" fill="#8b9ad9"></circle><circle r="5" cx="499.65" cy="705.07" fill="#8b9ad9"></circle><circle r="5" cx="667.85" cy="394.88" fill="#8b9ad9"></circle><circle r="5" cx="659.02" cy="560.25" fill="#8b9ad9"></circle><circle r="5" cx="799.27" cy="675.92" fill="#8b9ad9"></circle><circle r="5" cx="961.85" cy="374.61" fill="#8b9ad9"></circle><circle r="5" cx="1007.08" cy="494.86" fill="#8b9ad9"></circle><circle r="5" cx="1160.49" cy="363.96" fill="#8b9ad9"></circle><circle r="5" cx="1114.61" cy="554.46" fill="#8b9ad9"></circle><circle r="5" cx="1098.51" cy="686.51" fill="#8b9ad9"></circle><circle r="5" cx="1270.35" cy="-74.25" fill="#8b9ad9"></circle><circle r="5" cx="1249.67" cy="45.37" fill="#8b9ad9"></circle><circle r="5" cx="1249.33" cy="676.05" fill="#8b9ad9"></circle><circle r="5" cx="1402.76" cy="-87.12" fill="#8b9ad9"></circle><circle r="5" cx="1437.27" cy="198.65" fill="#8b9ad9"></circle><circle r="5" cx="1410.33" cy="370.46" fill="#8b9ad9"></circle><circle r="5" cx="1431.54" cy="532.65" fill="#8b9ad9"></circle><circle r="5" cx="1400.76" cy="712.11" fill="#8b9ad9"></circle><circle r="5" cx="1571.6" cy="-100.89" fill="#8b9ad9"></circle><circle r="5" cx="1565.78" cy="110.15" fill="#8b9ad9"></circle><circle r="5" cx="1586.67" cy="360.66" fill="#8b9ad9"></circle><circle r="5" cx="1561.4" cy="511.88" fill="#8b9ad9"></circle><circle r="5" cx="1557.9" cy="644.19" fill="#8b9ad9"></circle></g><defs><mask id="SvgjsMask1002"><rect width="1440" height="560" fill="#ffffff"></rect></mask><radialGradient id="SvgjsRadialGradient1003"><stop stop-color="#ffffff" offset="0.1"></stop><stop stop-color="#1735b3" offset="0.2"></stop><stop stop-color="rgba(23, 53, 179, 0)" offset="1"></stop></radialGradient></defs></svg>